<svg width="18" height="18" viewBox="0 0 18 18" fill="none" xmlns="http://www.w3.org/2000/svg">
<path d="M8.8941 0.333963C5.44703 0.333963 2.47325 2.3952 1.14063 5.35029C1.13797 5.3556 1.13531 5.36158 1.13332 5.36689C0.658515 6.42606 0.394897 7.5988 0.394897 8.83333C0.394897 10.0691 0.659195 11.2439 1.13533 12.3037C1.13666 12.3063 1.13798 12.3103 1.13931 12.3136C2.47074 15.2708 5.44572 17.3325 8.89414 17.3325C12.3359 17.3325 15.3036 15.2793 16.6396 12.3322C16.6403 12.3308 16.641 12.3295 16.6416 12.3282C16.6429 12.3242 16.6449 12.3209 16.6463 12.3169C16.6542 12.3016 16.6609 12.2857 16.6669 12.2698C17.1337 11.2186 17.3933 10.0545 17.3933 8.83187C17.3933 7.60924 17.1337 6.44798 16.6675 5.39671C16.6602 5.37612 16.6516 5.3562 16.6416 5.33694C15.3062 2.38848 12.3373 0.33252 8.8941 0.33252L8.8941 0.333963ZM8.8941 1.33403C9.173 1.33403 9.46652 1.46751 9.79057 1.80683C10.114 2.1455 10.4374 2.68139 10.7136 3.36406C10.9148 3.8621 11.0901 4.43784 11.2322 5.07271H6.5566C6.69871 4.43787 6.87336 3.86213 7.0739 3.36406C7.34949 2.68141 7.67288 2.1455 7.99695 1.80683C8.32034 1.4675 8.61586 1.33403 8.8941 1.33403ZM6.87196 1.60962C6.59704 2.00208 6.35598 2.46758 6.14416 2.99152C5.89515 3.60777 5.68796 4.30901 5.52925 5.07332H2.40161C3.37113 3.40123 4.96747 2.14018 6.87196 1.60962ZM10.9154 1.60962C12.8199 2.13954 14.4177 3.40123 15.3865 5.07334H12.2582C12.0988 4.30901 11.893 3.60777 11.6439 2.99154C11.4321 2.4676 11.191 2.00208 10.9154 1.60962ZM1.91803 6.07276H5.3532C5.22902 6.93802 5.16261 7.86574 5.16261 8.8332C5.16261 9.80067 5.22835 10.7283 5.3532 11.5936H1.91667C1.57932 10.7397 1.39406 9.80798 1.39406 8.8332C1.39406 7.8577 1.5807 6.92667 1.91803 6.07276ZM6.3686 6.07276H11.4187C11.5502 6.92806 11.6246 7.85911 11.6246 8.8332C11.6246 9.80738 11.5502 10.7384 11.4187 11.5936H6.36724C6.23575 10.7383 6.16205 9.8073 6.16205 8.8332C6.16205 7.85903 6.23712 6.92803 6.3686 6.07276ZM12.4335 6.07276H15.87C16.2073 6.92674 16.3933 7.85775 16.3933 8.8332C16.3933 9.80804 16.208 10.7397 15.8707 11.5936H12.4335C12.5576 10.7284 12.6247 9.80067 12.6247 8.8332C12.6247 7.86574 12.5577 6.93806 12.4335 6.07276ZM2.40083 12.5944H5.52846C5.68784 13.3588 5.89501 14.0593 6.14338 14.6755C6.35522 15.1995 6.59628 15.665 6.87186 16.0575C4.96737 15.5275 3.37033 14.2665 2.40083 12.5944ZM6.55577 12.5944H11.2314C11.0893 13.2286 10.914 13.8043 10.7128 14.3024C10.4372 14.985 10.1138 15.521 9.78974 15.8596C9.48626 16.1777 9.20934 16.3152 8.94639 16.3311C8.92913 16.3311 8.9112 16.3318 8.89393 16.3318C8.87667 16.3318 8.85874 16.3311 8.84147 16.3311C8.5785 16.3158 8.30026 16.177 7.99678 15.8596C7.67339 15.5203 7.34999 14.9851 7.07374 14.3024C6.87253 13.805 6.69722 13.2293 6.55577 12.5944ZM12.2574 12.5944H15.385C14.4155 14.2665 12.8184 15.5269 10.9139 16.0568C11.1894 15.6643 11.4318 15.1995 11.643 14.6749C11.8913 14.0593 12.098 13.3587 12.2574 12.5944Z" fill="#141414"/>
</svg>
